<svg xmlns:xlink="http://www.w3.org/1999/xlink" id="macman" data-name="macman" xmlns="http://www.w3.org/2000/svg" viewBox="-90 0 280 129.85" aria-labelledby="macTitle macDesc" width="292"  height="135" ><title id="macTitle">404...</title><desc id="macDesc">An illustrated early generation mac with a speech bubble that reads, "404..."</desc><defs><style>.mac-cls-1{fill:#e1523d}.mac-cls-2,.mac-cls-3,.mac-cls-5{fill:none;}.mac-cls-2,.mac-cls-3,.mac-cls-5,.mac-cls-6{stroke:#414141;}.mac-cls-2,.mac-cls-5{stroke-miterlimit:10;}.mac-cls-2,.mac-cls-3,.mac-cls-6{stroke-width:3px;}.mac-cls-3,.mac-cls-6{stroke-linejoin:round;}.mac-cls-4,.mac-cls-7{fill:#414141;}.mac-cls-5{stroke-width:2px;}.mac-cls-6{fill:#fff;}.mac-cls-7{font-size:24px;font-family:Helvetica-Bold, Helvetica;font-weight:700;}.mac-cls-8{letter-spacing:0.01em;}.mac-cls-9{letter-spacing:0.01em;}.mac-eye-1,.mac-eye-2{stroke-miterlimit:10;stroke-width:1px;fill:none;stroke:#414141;}</style></defs><rect class="mac-cls-1" x="8.16" y="115.34" width="78.44" height="12.57" fill="#E1523D"></rect><path class="mac-cls-2" d="M1.5,109.58V30.85A8.84,8.84,0,0,1,10.31,22h71a8.84,8.84,0,0,1,8.81,8.81v78.73" stroke="#414141" fill="none" stroke-width="3px"></path><rect class="mac-cls-3" x="4.77" y="112.58" width="81.83" height="15.77" stroke="#414141" fill="none" stroke-width="3px"></rect><path class="mac-cls-1" d="M80.24,23.78H12.93a8.38,8.38,0,0,0-8.36,8.36v77.48h84V32.14A8.38,8.38,0,0,0,80.24,23.78Zm-.7,53.15a7.2,7.2,0,0,1-7.2,7.2H19.29a7.2,7.2,0,0,1-7.2-7.2v-37a7.2,7.2,0,0,1,7.2-7.2H72.34a7.2,7.2,0,0,1,7.2,7.2Z" fill="#E1523D"></path><rect class="mac-cls-4" x="57.35" y="95.17" width="23.16" height="2.53" fill="#414141"></rect><rect class="mac-cls-4" x="14.73" y="98.77" width="7.05" height="2.78" fill="#414141"></rect><polyline class="mac-cls-5 mac-mouth-1" points="34.62 74.9 37.62 71.9 41.62 75.9 45.62 71.9 49.62 75.9 53.62 71.9 56.62 74.9" style="stroke-dashoffset: -0.242916; stroke-dasharray: 31.6269px, 42.1127px;" stroke="#414141" fill="none" stroke-width="2px"></polyline><rect class="mac-cls-2" x="12.09" y="32.72" width="67.45" height="51.41" rx="7.2" ry="7.2" stroke="#414141" fill="none" stroke-width="3px"></rect><polyline class="mac-cls-5" points="41.66 63.9 47.66 63.9 47.66 47.9" stroke="#414141" fill="none" stroke-width="2px"></polyline><rect class="mac-eye-1" x="40" y="47.9" width="1" height="5" stroke="#414141" fill="none"></rect><rect class="mac-eye-2" x="66.6" y="47.9" width="1" height="5" stroke="#414141" fill="none"></rect><path class="mac-cls-6" d="M158.86,1.5H74.2A5.56,5.56,0,0,0,68.65,7V32.84a5.56,5.56,0,0,0,5.55,5.55h8.86L64.43,73.06l40.29-34.68h54.14a5.56,5.56,0,0,0,5.55-5.55V7A5.56,5.56,0,0,0,158.86,1.5Z" stroke="#414141" fill="#FFFFFF" stroke-width="3px"></path><text class="mac-cls-7" transform="translate(82.91 28.71)" fill="#414141"><tspan class="mac-cls-8" fill="#414141">4</tspan><tspan class="mac-cls-9" x="13.51" y="0" fill="#414141">0</tspan><tspan x="27.04" y="0" fill="#414141">4 </tspan><tspan x="48" y="0" class="ellipsis-1" fill="#414141">.</tspan><tspan x="55.5" y="0" class="ellipsis-2" fill="#414141">.</tspan><tspan x="63" y="0" class="ellipsis-3" fill="#414141">.</tspan></text></svg>