<svg xmlns:xlink="http://www.w3.org/1999/xlink" width="52" height="74" viewBox="0 0 49 65" fill="none" xmlns="http://www.w3.org/2000/svg"><path d="M28.5104 17.4608V0.416504H3.44531C1.77848 0.416504 0.4375 1.75749 0.4375 3.42432V61.5754C0.4375 63.2422 1.77848 64.5832 3.44531 64.5832H45.5547C47.2215 64.5832 48.5625 63.2422 48.5625 61.5754V20.4686H31.5182C29.8639 20.4686 28.5104 19.1151 28.5104 17.4608ZM36.6791 44.5323H28.5104V54.5584C28.5104 55.6663 27.6131 56.5636 26.5052 56.5636H22.4948C21.3869 56.5636 20.4896 55.6663 20.4896 54.5584V44.5323H12.3209C10.5312 44.5323 9.63765 42.3655 10.9084 41.1034L22.9923 29.1098C23.8257 28.2814 25.1717 28.2814 26.0052 29.1098L38.089 41.1034C39.3611 42.3655 38.4688 44.5323 36.6791 44.5323ZM47.6852 13.5757L35.4159 1.29378C34.8519 0.729818 34.0874 0.416504 33.2853 0.416504H32.5208V16.4582H48.5625V15.6937C48.5625 14.9041 48.2492 14.1396 47.6852 13.5757Z" fill="#5c6e58"></path></svg>