<?xml version="1.0" standalone="no"?>
<!DOCTYPE svg PUBLIC "-//W3C//DTD SVG 20010904//EN"
 "http://www.w3.org/TR/2001/REC-SVG-20010904/DTD/svg10.dtd">
<svg version="1.0" xmlns="http://www.w3.org/2000/svg"
 width="494.000000pt" height="135.000000pt" viewBox="0 0 494.000000 135.000000"
 preserveAspectRatio="xMidYMid meet">

<g transform="translate(0.000000,135.000000) scale(0.100000,-0.100000)"
fill="#5c6e58" stroke="none">
<path d="M1205 974 c-14 -18 -57 -49 -95 -70 -77 -40 -96 -63 -116 -138 -28
-106 -9 -208 53 -271 72 -74 177 -100 376 -92 161 6 225 24 282 82 47 46 65
98 65 181 0 92 -16 133 -70 186 -65 63 -118 78 -273 78 l-119 0 -39 39 -39 38
-25 -33z m83 -186 c20 -20 15 -76 -7 -88 -29 -15 -49 -12 -71 10 -24 24 -26
53 -4 74 18 19 65 21 82 4z m272 -7 c22 -41 -2 -91 -43 -91 -45 0 -76 67 -45
98 20 20 76 15 88 -7z m-10 -190 c0 -38 -34 -79 -84 -102 -106 -48 -238 5
-262 104 l-6 27 176 0 176 0 0 -29z"/>
<path d="M2312 858 c-17 -17 -15 -65 4 -72 43 -17 84 1 84 35 0 40 -60 65 -88
37z"/>
<path d="M2935 850 c-15 -17 -16 -24 -7 -45 9 -20 19 -25 46 -25 46 0 65 30
41 66 -19 29 -55 31 -80 4z"/>
<path d="M4140 640 l0 -200 40 0 40 0 0 60 c0 33 4 60 8 60 4 0 27 -27 50 -60
42 -60 43 -60 92 -60 28 0 50 3 50 6 0 4 -25 35 -55 69 -30 35 -55 68 -55 75
0 6 26 42 57 78 l56 67 -49 3 c-53 4 -45 9 -121 -84 l-32 -39 0 113 -1 112
-40 0 -40 0 0 -200z"/>
<path d="M1980 785 l0 -35 75 0 c41 0 75 -4 75 -8 0 -5 -34 -57 -75 -117 -61
-89 -75 -116 -75 -147 l0 -38 130 0 130 0 0 35 0 35 -80 0 c-44 0 -80 4 -80 8
0 4 36 59 80 122 61 87 80 122 80 147 l0 33 -130 0 -130 0 0 -35z"/>
<path d="M3090 630 l0 -190 93 0 c147 0 192 21 204 93 5 32 1 41 -28 69 l-34
33 28 27 c33 32 35 75 7 111 -27 34 -76 47 -182 47 l-88 0 0 -190z m181 110
c25 -14 25 -56 0 -70 -11 -5 -36 -10 -55 -10 -36 0 -36 0 -36 45 0 45 0 45 36
45 19 0 44 -5 55 -10z m17 -152 c18 -18 14 -56 -7 -68 -11 -5 -38 -10 -60 -10
l-41 0 0 45 0 45 48 0 c26 0 53 -5 60 -12z"/>
<path d="M2300 590 l0 -150 45 0 45 0 0 150 0 150 -45 0 -45 0 0 -150z"/>
<path d="M2474 590 l41 -150 47 0 c53 0 47 -9 79 125 6 28 15 54 19 58 4 5 18
-34 31 -87 l23 -96 48 0 c47 0 47 0 58 43 14 51 59 215 66 240 4 14 -1 17 -34
17 -45 0 -38 16 -72 -153 -6 -32 -14 -56 -17 -54 -2 3 -11 34 -19 68 -35 149
-29 140 -81 137 l-46 -3 -24 -99 c-13 -55 -25 -102 -27 -104 -4 -3 -9 20 -36
151 l-11 57 -43 0 -43 0 41 -150z"/>
<path d="M2930 590 l0 -150 45 0 45 0 0 150 0 150 -45 0 -45 0 0 -150z"/>
<path d="M3520 733 c-8 -3 -26 -15 -38 -27 -104 -94 -42 -266 96 -266 92 0
154 61 154 151 0 60 -26 108 -72 131 -33 17 -108 23 -140 11z m107 -89 c21
-21 24 -32 19 -62 -15 -99 -126 -91 -126 8 0 74 58 103 107 54z"/>
<path d="M3850 722 c-99 -49 -99 -215 0 -264 68 -35 160 -15 203 44 30 40 34
124 8 166 -43 68 -136 92 -211 54z m120 -72 c31 -31 27 -93 -6 -119 -34 -27
-50 -26 -79 4 -31 30 -32 73 -4 109 25 31 61 34 89 6z"/>
</g>
</svg>
