<?xml version="1.0" standalone="no"?>
<!DOCTYPE svg PUBLIC "-//W3C//DTD SVG 20010904//EN"
 "http://www.w3.org/TR/2001/REC-SVG-20010904/DTD/svg10.dtd">
<svg version="1.0" xmlns="http://www.w3.org/2000/svg"
 width="500.000000pt" height="500.000000pt" viewBox="0 0 500.000000 500.000000"
 preserveAspectRatio="xMidYMid meet">

<g transform="translate(0.000000,500.000000) scale(0.100000,-0.100000)"
fill="#5c6e58" stroke="none">
<path d="M2330 4394 c-14 -2 -65 -9 -115 -15 -183 -22 -393 -84 -570 -169
-203 -98 -358 -206 -524 -365 -330 -318 -533 -711 -596 -1156 -19 -136 -19
-423 0 -559 149 -1046 1079 -1794 2126 -1712 578 46 1092 327 1439 787 209
278 335 581 385 926 17 123 20 385 5 509 -55 438 -234 823 -529 1133 -311 327
-699 533 -1136 604 -86 14 -433 26 -485 17z m346 -115 c359 -35 691 -166 978
-387 161 -124 353 -340 460 -519 135 -226 226 -499 255 -765 111 -1016 -619
-1939 -1634 -2068 -126 -16 -380 -14 -507 4 -614 88 -1153 485 -1423 1048
-138 288 -194 564 -182 897 9 232 46 407 132 620 310 770 1098 1251 1921 1170z"/>
<path d="M2760 4035 c-234 -29 -1191 -176 -1213 -186 -14 -6 -30 -22 -36 -35
-7 -16 -13 -162 -18 -403 l-6 -379 26 -26 c14 -14 37 -26 52 -26 14 0 224 43
467 95 243 52 444 93 446 90 2 -2 -135 -208 -304 -457 -349 -511 -580 -860
-642 -963 -52 -88 -113 -243 -142 -359 -31 -124 -26 -266 11 -346 75 -160 282
-286 522 -319 183 -25 487 -8 798 44 315 53 681 143 714 176 18 18 20 38 26
227 4 114 8 289 8 388 l1 181 -26 27 c-38 37 -66 34 -239 -25 -260 -88 -523
-148 -719 -165 -66 -6 -78 -5 -71 7 5 8 256 385 559 839 302 454 562 850 577
880 54 110 83 257 69 362 -25 201 -152 327 -372 372 -94 19 -335 20 -488 1z
m-1120 -290 c0 -12 -6 -28 -14 -34 -11 -9 -17 -6 -31 15 -16 24 -16 26 1 39
24 17 44 8 44 -20z m70 5 c0 -5 -4 -10 -10 -10 -5 0 -10 5 -10 10 0 6 5 10 10
10 6 0 10 -4 10 -10z m-20 -170 c0 -5 -7 -10 -15 -10 -8 0 -15 5 -15 10 0 6 7
10 15 10 8 0 15 -4 15 -10z m460 -120 c0 -5 -9 -10 -20 -10 -11 0 -20 5 -20
10 0 6 9 10 20 10 11 0 20 -4 20 -10z m420 -15 c0 -8 -7 -15 -15 -15 -8 0 -15
7 -15 15 0 8 7 15 15 15 8 0 15 -7 15 -15z m-578 -9 c21 -15 22 -86 2 -86 -7
0 -19 -3 -27 -6 -12 -4 -17 5 -22 40 -10 64 7 83 47 52z m453 -11 c0 -11 -8
-21 -17 -23 -14 -3 -18 3 -18 23 0 20 4 26 18 23 9 -2 17 -12 17 -23z m-520
-15 c4 -6 -5 -10 -19 -10 -14 0 -26 5 -26 10 0 6 9 10 19 10 11 0 23 -4 26
-10z m200 0 c3 -6 -1 -13 -9 -16 -8 -3 -18 -14 -21 -25 -7 -21 -31 -25 -55 -9
-13 9 -11 14 13 35 29 26 61 32 72 15z m138 -1 c22 -6 37 -16 37 -26 0 -13 -8
-14 -47 -8 -60 9 -67 13 -52 31 14 17 14 17 62 3z m597 -34 c0 -9 -6 -12 -15
-9 -8 4 -15 10 -15 15 0 5 7 9 15 9 8 0 15 -7 15 -15z m-769 -61 c11 -14 13
-14 21 0 12 22 48 3 48 -25 0 -27 -27 -35 -50 -14 -13 12 -20 14 -20 6 0 -18
-41 -9 -54 12 -8 14 -8 20 4 27 22 14 36 12 51 -6z m425 -30 c-5 -14 -9 -15
-19 -5 -9 9 -9 14 3 21 18 11 24 6 16 -16z m-222 -8 c43 -36 30 -60 -30 -53
-25 2 -48 7 -51 10 -5 6 37 66 47 66 3 0 18 -10 34 -23z m-284 -16 c0 -5 -9
-10 -20 -10 -11 0 -20 5 -20 10 0 6 9 10 20 10 11 0 20 -4 20 -10z m0 -59 c0
-14 -18 -23 -30 -16 -6 4 -8 11 -5 16 8 12 35 12 35 0z m700 -252 c0 -4 -9
-13 -21 -20 -28 -14 -42 0 -34 34 7 25 8 26 31 10 13 -8 24 -19 24 -24z m-160
-98 c-1 -20 -17 -28 -40 -19 -24 9 -24 10 -7 23 18 13 47 11 47 -4z m884
-1247 c18 -7 12 -24 -10 -24 -8 0 -14 7 -14 15 0 17 2 18 24 9z m-354 -30 c0
-10 -7 -14 -22 -12 -32 5 -35 28 -4 28 17 0 26 -5 26 -16z m-613 -306 c-3 -7
-5 -2 -5 12 0 14 2 19 5 13 2 -7 2 -19 0 -25z m493 -16 c0 -14 -11 -21 -26
-15 -8 3 -11 9 -8 14 7 11 34 12 34 1z m-280 -22 c0 -5 -5 -10 -11 -10 -5 0
-7 5 -4 10 3 6 8 10 11 10 2 0 4 -4 4 -10z m180 0 c0 -5 -4 -10 -10 -10 -5 0
-10 5 -10 10 0 6 5 10 10 10 6 0 10 -4 10 -10z m387 -146 c-3 -3 -12 -4 -19
-1 -8 3 -5 6 6 6 11 1 17 -2 13 -5z m-667 -125 c42 0 58 -3 45 -8 -29 -11
-275 -1 -275 12 0 6 29 8 83 4 45 -4 111 -7 147 -8z"/>
</g>
</svg>
